<svg id="Layer_1" data-name="Layer 1" xmlns="http://www.w3.org/2000/svg" viewBox="0 0 621.55 561.09"><defs><style>.cls-1{fill:#3cb44a;}</style></defs><title>Untitled-2</title><path class="cls-1" d="M969.64,405.91C817.85,434.36,703.44,507.13,657.91,592,610.12,510,497.77,440.17,349.9,412.46c0,0-28.57,326.84,235.53,358.27V686.5h-19.8l92.77-92.77,32.22,40.16V618.3h15.09v34.39l27.13,33.81H718.17v79.16C999.33,745.71,969.64,405.91,969.64,405.91Z" transform="translate(-349 -209.64)"/><path class="cls-1" d="M663.92,209.64c-85.92,93.88-122.11,197.8-86.25,263.5,1.26,2.32,26.43,46.81,65.9,56l25.83.53c44.65-8.65,71.73-64,73.89-68.61C775.86,391.94,742.11,294.15,663.92,209.64Z" transform="translate(-349 -209.64)"/></svg>