<svg id="Layer_1" data-name="Layer 1" xmlns="http://www.w3.org/2000/svg" viewBox="0 0 150.08 155.01"><defs><style>.cls-1{fill-rule:evenodd;}</style></defs><path class="cls-1" d="M932,427c11-.17,16.34,3.12,23,5l20-4c10.33-1.55,22.22,1.21,32,4,14,4,39.11-13.38,47,8-33-.77-64.77-3.37-93,9,9.43,12.31,14.9,26,2,39l-3-2c-3.76-8.07-11.27-15.63-9-27l-3,2c-3.59,9.73-7.38,12.47-6,24,17.08,10.41,14.7,25.65,14,46h-1c-18.93-8.69-14.19-21.85-22-42-3.19,6.28-9.47,11-17,13,4.45-28.24,17.39-29.85,31-52-18.14,4.06-48.62,43.77-33,72l11,8c11.18,11.57,14.64,34.89,5,52-21-12.87-24.81-27.77-20-54,1.33-7.23-7-21.92-6-31,2.33-21,15.9-34.93,29-52v-1l-25-2v-1l6-7Z" transform="translate(-903.92 -426.99)"/></svg>